<!DOCTYPE html>
<html lang="zh-cn">
    <head>
  <!-- 元数据 -->
  <meta charset="utf-8">
  
    <link rel="icon" href="/img/favicon.svg">
  
  
  <title>2.0/1.0 音轨比较说明 | FXXS</title>
  <link rel="canonical" href="http://fxxs.github.io/4.Audio&sub/2.01.0%E9%9F%B3%E8%BD%A8%E8%AF%B4%E6%98%8E/">
  <meta name="author" content="ted423" />
  <meta http-equiv="Cache-Control" content="no-transform" />
  <meta http-equiv="Cache-Control" content="no-siteapp" />
  <meta http-equiv="X-UA-Compatible" content="IE=edge" />
  <meta name="robots" content="index,follow" />
  <meta name="viewport" content="width=device-width, initial-scale=1, maximum-scale=1" />
  <meta name="format-detection" content="telphone=no, email=no" />
  
    <meta name="keywords" content="" />
  
  <meta name="description" content="一般来说2.0是存在24bit音轨的，但是如potplayer默认就会转换成16bit输出。并且24bit音轨通常非常大，在flac格式下，接近16bit的两倍(不过存在假24bit音轨) 另外DTS 2.0(core,不是DTS-HD MA 2.0)为有损，24bit的DTS 码率(768kbps) &gt; 16 bit Flac(测试的是448 kb&#x2F;s) 后者只是某部影片转换的出">
<meta property="og:type" content="article">
<meta property="og:title" content="2.0&#x2F;1.0 音轨比较说明">
<meta property="og:url" content="http://fxxs.github.io/4.Audio&sub/2.01.0%E9%9F%B3%E8%BD%A8%E8%AF%B4%E6%98%8E/index.html">
<meta property="og:site_name" content="FXXS">
<meta property="og:description" content="一般来说2.0是存在24bit音轨的，但是如potplayer默认就会转换成16bit输出。并且24bit音轨通常非常大，在flac格式下，接近16bit的两倍(不过存在假24bit音轨) 另外DTS 2.0(core,不是DTS-HD MA 2.0)为有损，24bit的DTS 码率(768kbps) &gt; 16 bit Flac(测试的是448 kb&#x2F;s) 后者只是某部影片转换的出">
<meta property="og:locale" content="zh_CN">
<meta property="og:image" content="http://fxxs.github.io/img/down16.png">
<meta property="article:published_time" content="2025-10-19T11:52:19.938Z">
<meta property="article:modified_time" content="2025-10-15T07:46:01.000Z">
<meta property="article:author" content="ted423">
<meta property="article:tag" content="FXXS">
<meta name="twitter:card" content="summary">
<meta name="twitter:image" content="http://fxxs.github.io/img/down16.png">
  
    <link rel="alternate" href="/atom.xml" title="FXXS" type="application/atom+xml">
  
  <!-- 样式表文件 -->
  <link rel="stylesheet" id="kratos-css" href="/css/kr-core.min.css" media="all"></link>
  
    <link rel="stylesheet" id="highlight-css" href="/css/highlight/highlight.js/night-eighties.min.css" media="all"></link>
  
  <link rel="stylesheet" id="theme-light-css" href="/css/kr-theme/light.min.css" media="all"></link>
  <link rel="stylesheet" id="theme-dark-css" href="/css/kr-theme/dark.min.css" media="(prefers-color-scheme: dark)"></link>
  <script src="/js/kr-theme.min.js"></script>
  <link rel="stylesheet" id="fontawe-css" href="/vendors/font-awesome@4.7.0/css/font-awesome.min.css" media="all"></link>
  
    <link rel="stylesheet" id="nprogress-css" href="/vendors/nprogress@0.2.0/nprogress.css" media="all"></link>
  
  
    <link rel="stylesheet" href="/vendors/viewerjs@1.11.6/dist/viewer.min.css"></link>
  
  <!-- 不得不预先加载的一些JS文件 -->
  
    <script src="/vendors/qr-code-styling@1.6.0-rc.1/lib/qr-code-styling.js"></script>
  
  <!-- 自定义站点横幅和背景 -->
  <style>
    
      .kratos-cover.kratos-cover-2 {
        background-image: url('');
      }
      html[data-theme="dark"] .kratos-cover.kratos-cover-2 {
        background-image: url('');
      }
    
    
      @media(min-width:768px) {
        body.custom-background {
          background-image: url('');
        }
        html[data-theme="dark"] body.custom-background {
          background-image: url('');
        }
      }
    
    
      .widget-kratos-about .photo-background {
        background-image: url('/images/default.webp');
      }
      html[data-theme="dark"] .widget-kratos-about .photo-background {
        background-image: url('/images/default.webp');
      }
    
  </style>

  <!-- 额外的追加注入项 -->
  
    <style>#kratos-widget-area #krw-toc .toc-item>.toc-child{max-height:unset}@media (min-width: 1200px) {.container {width:75%}}@media (min-width: 992px) {.col-md-8 {width: 75%;}.col-md-4 {width: 25%;}}</style>

  
<meta name="generator" content="Hexo 8.0.0"></head>

    <body class="custom-background">
        <div id="kratos-wrapper">
    <div id="kratos-page">
        <div id="kratos-header">
            <header id="kratos-desktop-topnav" class="kratos-topnav">
                <div class="container">
                    <div class="nav-header">
                        <nav id="kratos-menu-wrap">
                            <ul id="kratos-primary-menu" class="sf-menu">
                                
                            </ul>
                        </nav>
                    </div>
                </div>
            </header>
            <header id="kratos-mobile-topnav" class="kratos-topnav">
                <div class="container">
                    <div class="color-logo"><a href="/">FXXS</a></div>
                    <div id="kratos-nav-toggle-wrapper" class="nav-toggle">
                        <a id="kratos-nav-toggle" class="kratos-nav-toggle">
                            <i></i>
                        </a>
                    </div>
                </div>
            </header>
        </div>
        <div class="kratos-start kratos-hero-2">
            <!-- <div class="kratos-overlay"></div> -->
            <div class="kratos-cover kratos-cover-2 text-center">
                <div class="desc desc2 animate-box">
                    <a href="/">
                        <h2>FXXS</h2> <br />
                        <span>FXXS</span>
                    </a>
                </div>
            </div>
        </div>

        <div id="kratos-blog-post">
            <div class="container">
                <div id="main" class="row">


        

            

            <section class="kr-main-col col-md-8">

        

            <article itemscope itemtype="https://schema.org/Article">
    <link itemprop="mainEntityOfPage" href="http://fxxs.github.io/4.Audio&amp;sub/2.01.0%E9%9F%B3%E8%BD%A8%E8%AF%B4%E6%98%8E/">
    <div class="kratos-hentry kratos-page-inner clearfix">
        <header class="kratos-page-header">
            
                <h1 class="kratos-page-title text-center" itemprop="name headline">2.0/1.0 音轨比较说明</h1>
            
            <ul class="kratos-page-meta text-center">
                <li><time datetime="2025-10-19T11:52:19.938Z" itemprop="datePublished"><i class="fa fa-calendar"></i> 2025-10-19</time></li>
                <li itemprop="author" itemscope itemtype="https://schema.org/Person">
                    <i class="fa fa-user"></i> 作者 <span itemprop="name">ted423</span>
                </li>
                
                    <li>
                        <i class="fa fa-edit"></i> 
                        
                        
                            ~6.38K
                        
                        字
                    </li>
                
                
                
            </ul>
        </header>
        <div class="kratos-page-content kr-post">
            
            
            
            <hr />
            <div itemprop="articleBody"><p>一般来说2.0是存在24bit音轨的，但是如potplayer默认就会转换成16bit输出。并且24bit音轨通常非常大，在flac格式下，接近16bit的两倍(不过存在假24bit音轨)</p>
<p>另外DTS 2.0(core,不是DTS-HD MA 2.0)为有损，24bit的DTS 码率(768kbps) &gt; 16 bit Flac(测试的是448 kb&#x2F;s) 后者只是某部影片转换的出来的参考值 （实际中不要这么操作，因为这里是有损算法转无损算法，不做down16的情况码率一般会上升）</p>
<p>通常压制2.0&#x2F;1.0只建议使用Flac,如感觉flac码率过高，可以转为16bit<br><img src="/../img/down16.png" alt="down16"></p>
<p>相反DD&#x2F;AC3因为压缩效率差，并且因为是固定码率转换，码率给低了效果差，高了很可能比flac还要大(特别是以前有不少AC3 2.0 给640kbps的)</p>
<p>AAC的话，参考下面那些情况，AAC的每条轨道并不建议超过100kbps，200kpbs在某些情况下已经接近flac</p>
<p>以The Asphalt Jungle 1950说明(注意这是1轨道)</p>
<p>原盘</p>
<figure class="highlight plaintext"><table><tr><td class="gutter"><pre><span class="line">1</span><br></pre></td><td class="code"><pre><span class="line">1:	English 1.0ch LPCM Audio @ 1152 kbps</span><br></pre></td></tr></table></figure>
<p>Remux (24bit FLAC)</p>
<figure class="highlight plaintext"><table><tr><td class="gutter"><pre><span class="line">1</span><br><span class="line">2</span><br><span class="line">3</span><br><span class="line">4</span><br><span class="line">5</span><br><span class="line">6</span><br><span class="line">7</span><br><span class="line">8</span><br><span class="line">9</span><br><span class="line">10</span><br><span class="line">11</span><br><span class="line">12</span><br><span class="line">13</span><br><span class="line">14</span><br><span class="line">15</span><br><span class="line">16</span><br><span class="line">17</span><br><span class="line">18</span><br><span class="line">19</span><br><span class="line">20</span><br></pre></td><td class="code"><pre><span class="line">Audio #1</span><br><span class="line">ID : 2</span><br><span class="line">Format : FLAC</span><br><span class="line">Format/Info : Free Lossless Audio Codec</span><br><span class="line">Codec ID : A_FLAC</span><br><span class="line">Duration : 1 h 52 min</span><br><span class="line">Bit rate mode : Variable</span><br><span class="line">Bit rate : 492 kb/s</span><br><span class="line">Channel(s) : 1 channel</span><br><span class="line">Channel layout : C</span><br><span class="line">Sampling rate : 48.0 kHz</span><br><span class="line">Frame rate : 11.719 FPS (4096 SPF)</span><br><span class="line">Bit depth : 24 bits</span><br><span class="line">Compression mode : Lossless</span><br><span class="line">Stream size : 396 MiB (2%)</span><br><span class="line">Title : FLAC Audio / 1.0 / 48 kHz / 492 kbps / 24-bit</span><br><span class="line">Writing library : libFLAC 1.3.1 (UTC 2014-11-25)</span><br><span class="line">Language : English</span><br><span class="line">Default : Yes</span><br><span class="line">Forced : No</span><br></pre></td></tr></table></figure>

<p>Encode(16bit FLAC)</p>
<figure class="highlight plaintext"><table><tr><td class="gutter"><pre><span class="line">1</span><br><span class="line">2</span><br><span class="line">3</span><br><span class="line">4</span><br><span class="line">5</span><br><span class="line">6</span><br><span class="line">7</span><br><span class="line">8</span><br><span class="line">9</span><br><span class="line">10</span><br><span class="line">11</span><br><span class="line">12</span><br><span class="line">13</span><br><span class="line">14</span><br><span class="line">15</span><br><span class="line">16</span><br><span class="line">17</span><br><span class="line">18</span><br><span class="line">19</span><br><span class="line">20</span><br><span class="line">21</span><br><span class="line">22</span><br><span class="line">23</span><br><span class="line">24</span><br><span class="line">25</span><br></pre></td><td class="code"><pre><span class="line">General</span><br><span class="line">Complete name               : D:\Seed\The.Asphalt.Jungle.1955.CC.Bluray.1080p.x265.10bit.MNHD-FRDS\The.Asphalt.Jungle.1955.CC.Bluray.1080p.x265.10bit.MNHD-FRDS.mkv_2eng.flac</span><br><span class="line">Format                      : FLAC</span><br><span class="line">Format/Info                 : Free Lossless Audio Codec</span><br><span class="line">File size                   : 160 MiB</span><br><span class="line">Duration                    : 1 h 52 min</span><br><span class="line">Overall bit rate mode       : Variable</span><br><span class="line">Overall bit rate            : 198 kb/s</span><br><span class="line">Track name                  : The Asphalt Jungle</span><br><span class="line">Writing application         : Lavf58.35.102</span><br><span class="line"></span><br><span class="line">Audio</span><br><span class="line">Format                      : FLAC</span><br><span class="line">Format/Info                 : Free Lossless Audio Codec</span><br><span class="line">Duration                    : 1 h 52 min</span><br><span class="line">Bit rate mode               : Variable</span><br><span class="line">Bit rate                    : 198 kb/s</span><br><span class="line">Channel(s)                  : 1 channel</span><br><span class="line">Channel layout              : C</span><br><span class="line">Sampling rate               : 48.0 kHz</span><br><span class="line">Bit depth                   : 16 bits</span><br><span class="line">Compression mode            : Lossless</span><br><span class="line">Stream size                 : 160 MiB (100%)</span><br><span class="line">Writing library             : libFLAC 1.2.1 (UTC 2007-09-17)</span><br><span class="line"></span><br></pre></td></tr></table></figure>


<p>下面是16bit 2.0音轨的码率</p>
<p>以Jin.Bi.Tong.AKA.The.Kid.with.The.Golden.Arm.1979.1080p.Blu-ray.Remux.AVC.DTS-HD.MA.2.0-KRaLiMaRKo举例</p>
<figure class="highlight plaintext"><table><tr><td class="gutter"><pre><span class="line">1</span><br><span class="line">2</span><br><span class="line">3</span><br><span class="line">4</span><br><span class="line">5</span><br><span class="line">6</span><br><span class="line">7</span><br><span class="line">8</span><br><span class="line">9</span><br><span class="line">10</span><br><span class="line">11</span><br><span class="line">12</span><br><span class="line">13</span><br><span class="line">14</span><br><span class="line">15</span><br><span class="line">16</span><br><span class="line">17</span><br><span class="line">18</span><br><span class="line">19</span><br><span class="line">20</span><br></pre></td><td class="code"><pre><span class="line">Audio</span><br><span class="line">ID                          : 2</span><br><span class="line">Format                      : DTS XLL</span><br><span class="line">Format/Info                 : Digital Theater Systems</span><br><span class="line">Commercial name             : DTS-HD Master Audio</span><br><span class="line">Codec ID                    : A_DTS</span><br><span class="line">Duration                    : 1 h 24 min</span><br><span class="line">Bit rate mode               : Variable</span><br><span class="line">Bit rate                    : 632 kb/s</span><br><span class="line">Channel(s)                  : 2 channels</span><br><span class="line">Channel layout              : L R</span><br><span class="line">Sampling rate               : 48.0 kHz</span><br><span class="line">Frame rate                  : 93.750 FPS (512 SPF)</span><br><span class="line">Bit depth                   : 16 bits</span><br><span class="line">Compression mode            : Lossless</span><br><span class="line">Stream size                 : 384 MiB (2%)</span><br><span class="line">Title                       : Mandarin</span><br><span class="line">Language                    : Chinese</span><br><span class="line">Default                     : Yes</span><br><span class="line">Forced                      : No</span><br></pre></td></tr></table></figure>

<p>转换为WAV&#x2F;PCM</p>
<p>(PCM为raw数据，WAV为未经任何压缩的音频格式，PCM因为未封装，故看不到mediainfo信息)</p>
<figure class="highlight plaintext"><table><tr><td class="gutter"><pre><span class="line">1</span><br><span class="line">2</span><br><span class="line">3</span><br><span class="line">4</span><br><span class="line">5</span><br><span class="line">6</span><br><span class="line">7</span><br><span class="line">8</span><br><span class="line">9</span><br><span class="line">10</span><br><span class="line">11</span><br><span class="line">12</span><br><span class="line">13</span><br><span class="line">14</span><br><span class="line">15</span><br><span class="line">16</span><br><span class="line">17</span><br><span class="line">18</span><br><span class="line">19</span><br><span class="line">20</span><br></pre></td><td class="code"><pre><span class="line">General</span><br><span class="line">Complete name               : \Jin.Bi.Tong.AKA.The.Kid.with.The.Golden.Arm.1979.1080p.Blu-ray.Remux.AVC.DTS-HD.MA.2.0-KRaLiMaRKo\Jin.Bi.Tong.AKA.The.Kid.with.The.Golden.Arm.1979.1080p.Blu-ray.Remux.AVC.DTS-HD.MA.2.0-KRaLiMaRKo.mkv_2eng.wav</span><br><span class="line">Format                      : Wave</span><br><span class="line">File size                   : 934 MiB</span><br><span class="line">Duration                    : 1 h 24 min</span><br><span class="line">Overall bit rate mode       : Constant</span><br><span class="line">Overall bit rate            : 1 536 kb/s</span><br><span class="line"></span><br><span class="line">Audio</span><br><span class="line">Format                      : PCM</span><br><span class="line">Format settings             : Little / Signed</span><br><span class="line">Codec ID                    : 00000001-0000-0010-8000-00AA00389B71</span><br><span class="line">Duration                    : 1 h 24 min</span><br><span class="line">Bit rate mode               : Constant</span><br><span class="line">Bit rate                    : 1 536 kb/s</span><br><span class="line">Channel(s)                  : 2 channels</span><br><span class="line">Channel layout              : L R</span><br><span class="line">Sampling rate               : 48.0 kHz</span><br><span class="line">Bit depth                   : 16 bits</span><br><span class="line">Stream size                 : 934 MiB (100%)</span><br></pre></td></tr></table></figure>

<p>PCM体积933 MB (978,888,704 字节) 与WAV一致</p>
<p>转换为FLAC</p>
<figure class="highlight plaintext"><table><tr><td class="gutter"><pre><span class="line">1</span><br><span class="line">2</span><br><span class="line">3</span><br><span class="line">4</span><br><span class="line">5</span><br><span class="line">6</span><br><span class="line">7</span><br><span class="line">8</span><br><span class="line">9</span><br><span class="line">10</span><br><span class="line">11</span><br><span class="line">12</span><br><span class="line">13</span><br><span class="line">14</span><br><span class="line">15</span><br><span class="line">16</span><br><span class="line">17</span><br><span class="line">18</span><br><span class="line">19</span><br><span class="line">20</span><br><span class="line">21</span><br><span class="line">22</span><br></pre></td><td class="code"><pre><span class="line">General</span><br><span class="line">Complete name               : Jin.Bi.Tong.AKA.The.Kid.with.The.Golden.Arm.1979.1080p.Blu-ray.Remux.AVC.DTS-HD.MA.2.0-KRaLiMaRKo\Jin.Bi.Tong.AKA.The.Kid.with.The.Golden.Arm.1979.1080p.Blu-ray.Remux.AVC.DTS-HD.MA.2.0-KRaLiMaRKo.mkv_2chi.flac</span><br><span class="line">Format                      : FLAC</span><br><span class="line">Format/Info                 : Free Lossless Audio Codec</span><br><span class="line">File size                   : 144 MiB</span><br><span class="line">Duration                    : 1 h 24 min</span><br><span class="line">Overall bit rate mode       : Variable</span><br><span class="line">Overall bit rate            : 236 kb/s</span><br><span class="line"></span><br><span class="line">Audio</span><br><span class="line">Format                      : FLAC</span><br><span class="line">Format/Info                 : Free Lossless Audio Codec</span><br><span class="line">Duration                    : 1 h 24 min</span><br><span class="line">Bit rate mode               : Variable</span><br><span class="line">Bit rate                    : 236 kb/s</span><br><span class="line">Channel(s)                  : 2 channels</span><br><span class="line">Channel layout              : L R</span><br><span class="line">Sampling rate               : 48.0 kHz</span><br><span class="line">Bit depth                   : 16 bits</span><br><span class="line">Compression mode            : Lossless</span><br><span class="line">Stream size                 : 144 MiB (100%)</span><br><span class="line">Writing library             : libFLAC 1.3.3 (UTC 2019-08-04)</span><br></pre></td></tr></table></figure>


<p>用qaac转换 (-V 99)</p>
<figure class="highlight plaintext"><table><tr><td class="gutter"><pre><span class="line">1</span><br><span class="line">2</span><br><span class="line">3</span><br><span class="line">4</span><br><span class="line">5</span><br><span class="line">6</span><br><span class="line">7</span><br><span class="line">8</span><br><span class="line">9</span><br><span class="line">10</span><br><span class="line">11</span><br><span class="line">12</span><br><span class="line">13</span><br><span class="line">14</span><br><span class="line">15</span><br><span class="line">16</span><br><span class="line">17</span><br><span class="line">18</span><br><span class="line">19</span><br><span class="line">20</span><br><span class="line">21</span><br><span class="line">22</span><br><span class="line">23</span><br><span class="line">24</span><br><span class="line">25</span><br><span class="line">26</span><br><span class="line">27</span><br><span class="line">28</span><br><span class="line">29</span><br><span class="line">30</span><br></pre></td><td class="code"><pre><span class="line">General</span><br><span class="line">Unique ID                   : 181232920087942023197824205628061447959 (0x885830D657BDCC069935FFFCF8CEF717)</span><br><span class="line">Complete name               : Jin.Bi.Tong.AKA.The.Kid.with.The.Golden.Arm.1979.1080p.Blu-ray.Remux.AVC.DTS-HD.MA.2.0-KRaLiMaRKo.mkv_2eng.mka</span><br><span class="line">Format                      : Matroska</span><br><span class="line">Format version              : Version 4</span><br><span class="line">File size                   : 55.8 MiB</span><br><span class="line">Duration                    : 1 h 24 min</span><br><span class="line">Overall bit rate            : 91.8 kb/s</span><br><span class="line">Encoded date                : UTC 2022-01-06 06:36:30</span><br><span class="line">Writing application         : mkvmerge v63.0.0 (&#x27;Everything&#x27;) 64-bit</span><br><span class="line">Writing library             : libebml v1.4.2 + libmatroska v1.6.4</span><br><span class="line"></span><br><span class="line">Audio</span><br><span class="line">ID                          : 1</span><br><span class="line">Format                      : AAC LC</span><br><span class="line">Format/Info                 : Advanced Audio Codec Low Complexity</span><br><span class="line">Codec ID                    : A_AAC-2</span><br><span class="line">Duration                    : 1 h 24 min</span><br><span class="line">Bit rate                    : 90.5 kb/s</span><br><span class="line">Channel(s)                  : 2 channels</span><br><span class="line">Channel layout              : L R</span><br><span class="line">Sampling rate               : 48.0 kHz</span><br><span class="line">Frame rate                  : 46.875 FPS (1024 SPF)</span><br><span class="line">Compression mode            : Lossy</span><br><span class="line">Stream size                 : 55.0 MiB (99%)</span><br><span class="line">Language                    : Armenian</span><br><span class="line">Default                     : Yes</span><br><span class="line">Forced                      : No</span><br><span class="line"></span><br><span class="line"></span><br></pre></td></tr></table></figure></div>
        </div>
        
        <footer class="kratos-entry-footer clearfix">
            
            
            
                <div class="post-actions text-center clearfix" id="post-actions">
                
                
                    <a class="share" href="javascript:;" onclick="krOpenShareModal()"><i class="fa fa-share-alt"></i> 分享</a>
                
                </div>
            
            <div class="footer-tag clearfix">
                <div class="pull-left">
                <i class="fa fa-tags"></i>
                    
                </div>
                <div class="pull-date">
                    <time datetime="2025-10-15T07:46:01.000Z" itemprop="dateModified">最后编辑：2025-10-15</time>
                </div>
            </div>
        </footer>
    </div>
    
        <nav class="navigation post-navigation clearfix" role="navigation">
            
            <div class="nav-previous clearfix">
                <a title=" 压制基础教程（FXXS出品）" href="/压制基础教程/"><i class="fa fa-angle-left"></i> 上一篇</a>
            </div>
            
            
        </nav>
    
    
        <div class="comment-post">
            <div id="disqus_thread" class="kr-comments lazy-load" data-path="/4.Audio&sub/2.01.0%E9%9F%B3%E8%BD%A8%E8%AF%B4%E6%98%8E/" data-full-path="http://fxxs.github.io/4.Audio&sub/2.01.0%E9%9F%B3%E8%BD%A8%E8%AF%B4%E6%98%8E/"></div>
        </div>
    
</article>

        

            </section>

            
                

<section id="kratos-widget-area" class="col-md-4 hidden-xs hidden-sm">
    <!-- 文章和页面根据splitter来分割，没有的话就从头开始设置为sticky -->
    
        <div class="sticky-area">
    
    
                <aside id="krw-about" class="widget widget-kratos-about clearfix">
    <div class="photo-background"></div>
    <div class="photo-wrapper clearfix">
        <div class="photo-wrapper-tip text-center">
            <img class="about-photo" src="/img/avatar.png" alt="ted423" loading="lazy" decoding="auto" />
        </div>
    </div>
    <div class="textwidget">
        <p class="text-center"></p>
    </div>
    <div class="site-meta">
        <a class="meta-item" href="/archives/">
            <span class="title">
                文章
            </span>
            <span class="count">
                28
            </span>
        </a>
        <a class="meta-item" href="/categories/">
            <span class="title">
                分类
            </span>
            <span class="count">
                5
            </span>
        </a>
        <a class="meta-item" href="/tags/">
            <span class="title">
                标签
            </span>
            <span class="count">
                4
            </span>
        </a>
    </div>
</aside>
            
                
  <aside id="krw-categories" class="widget widget-kratos-categories clearfix">
    <h4 class="widget-title"><i class="fa fa-folder"></i>分类列表</h4>
      <ul class="category-list"><li class="category-list-item"><a class="category-list-link" href="/categories/1-%E5%9F%BA%E7%A1%80%E7%9F%A5%E8%AF%86/">1.基础知识</a><span class="category-list-count">3</span></li><li class="category-list-item"><a class="category-list-link" href="/categories/2-Tools/">2.Tools</a><span class="category-list-count">10</span></li><li class="category-list-item"><a class="category-list-link" href="/categories/3-Code/">3.Code</a><span class="category-list-count">2</span></li><li class="category-list-item"><a class="category-list-link" href="/categories/4-Audio-sub/">4.Audio&sub</a><span class="category-list-count">5</span></li><li class="category-list-item"><a class="category-list-link" href="/categories/6-etc/">6.etc</a><span class="category-list-count">6</span></li></ul>
  </aside>


            
                
  <aside id="krw-tags" class="widget widget-kratos-tags clearfix">
    <h4 class="widget-title"><i class="fa fa-tags"></i>标签聚合</h4>
      <div class="tag-clouds">
        <a href="/tags/Compare/" style="font-size: 0.6em;">Compare</a> <a href="/tags/Notes/" style="font-size: 0.6em;">Notes</a> <a href="/tags/Plugins-Scripts/" style="font-size: 0.7em;">Plugins&Scripts</a> <a href="/tags/%E5%BB%BA%E8%AE%BE%E4%B8%AD/" style="font-size: 0.8em;">建设中</a>
      </div>
  </aside>

            
    </div>
</section>
            

        

                </div>
    </div>
</div>

<footer>
    <div id="footer">
        <div class="container">
            <div class="row">
                <div class="col-md-6 col-md-offset-3 footer-list text-center">
                    <ul class="kratos-social-icons">
                        
                    </ul>
                    <ul class="kratos-copyright">
                        <div>
                            <li>&copy; 2025 FXXS 版权所有.</li>
                            <li>本站已运行<span id="kr-since">Loading...</span></li>
                        </div>
                        <div>
                            <li>自豪地使用 <a href="https://github.com/Candinya/Kratos-Rebirth" target="_blank">Kratos:Rebirth</a> 主题</li>
                            <li>站点由 ted423 用 <i class="fa fa-heart" style="color:#d43f57"></i> 搭建</li>
                        </div>
                        <!-- 额外的追加注入项 -->
                        
                    </ul>
                </div>
            </div>
        </div>
        <div class="kr-tool text-center">
            <div class="tool">
                
                    <div class="box search-box">
                        <a href="/search">
                            <span class="fa fa-search"></span>
                        </a>
                    </div>
                
                <div class="box theme-box" id="theme-toggle">
                    <span class="fa fa-adjust"></span>
                </div>
            </div>
            <div id="gotop-box" class="box gotop-box">
                <span class="fa fa-chevron-up"></span>
            </div>
        </div>
    </div>
</footer>
</div>
</div>


    <div id="kr-donate-modal" class="kr-modal">
    <div class="kr-modal-bg" onclick="krCloseDonateModal()"></div>
    <div class="kr-modal-content">
        <div class="kr-modal-header">
            <div class="kr-modal-icon">
                <i class="fa fa-bitcoin"></i>
            </div>
            <div class="kr-modal-title">打赏</div>
            <button class="kr-modal-close" onclick="krCloseDonateModal()">
                <i class="fa fa-times-circle"></i>
            </button>
        </div>
        <div class="kr-modal-body">
            <div class="kr-donate-message">打赏提示信息</div>
            <div class="kr-donate-qr" id="kr-donate-qr">
                
            </div>
            <div class="kr-donate-platforms">
                
            </div>
        </div>
    </div>
</div>
<script defer src="/js/kr-modal/donate.min.js"></script>




    <div id="kr-share-modal" class="kr-modal">
    <div class="kr-modal-bg" onclick="krCloseShareModal()"></div>
    <div class="kr-modal-content">
        <div class="kr-modal-header">
            <div class="kr-modal-icon">
                <i class="fa fa-share-alt"></i>
            </div>
            <div class="kr-modal-title">分享</div>
            <button class="kr-modal-close" onclick="krCloseShareModal()">
                <i class="fa fa-times-circle"></i>
            </button>
        </div>
        <div class="kr-modal-body">
            <div class="kr-share-message">分享提示信息</div>
            <div class="kr-share-qr" id="kr-share-qr"></div>
            <div class="kr-share-platforms">
                
            </div>
        </div>
    </div>
</div>
<script defer src="/js/kr-modal/share.min.js"></script>



<!-- 额外的追加注入项 -->


        <script>
    if (!window.kr) {
        window.kr = {};
    }
    window.kr.notMobile = (!(navigator.userAgent.match(/(phone|pad|pod|iPhone|iPod|ios|iPad|Android|Mobile|BlackBerry|IEMobile|MQQBrowser|JUC|Fennec|wOSBrowser|BrowserNG|WebOS|Symbian|Windows Phone)/i)));
    window.kr.siteRoot = "/";
</script>


  <script defer src="/vendors/nprogress@0.2.0/nprogress.js"></script>



  <script defer src="/vendors/viewerjs@1.11.6/dist/viewer.min.js"></script>


<script defer src="/js/kr-core.min.js"></script>


  <script defer src="/js/kr-pjax.min.js"></script>


<!-- 额外的追加注入项 -->

  <script src="https://https-ted423-github-io.disqus.com/embed.js"></script>
<script async id="dsq-count-scr" src="https://https-ted423-github-io.disqus.com/count.js"></script>
<script src="/comments/disqus.js"></script>



    </body>
</html>